<svg xmlns="http://www.w3.org/2000/svg" xmlns:xlink="http://www.w3.org/1999/xlink" width="2000" zoomAndPan="magnify" viewBox="0 0 1500 1499.999933" height="2000" preserveAspectRatio="xMidYMid meet" version="1.0"><defs><g/><clipPath id="ef7d0fec05"><path d="M 0 0 L 1498.914062 0 L 1498.914062 1500 L 0 1500 Z M 0 0 " clip-rule="nonzero"/></clipPath><clipPath id="2ae5dcb150"><path d="M 748.914062 0 C 334.699219 0 -1.085938 335.785156 -1.085938 750 C -1.085938 1164.214844 334.699219 1500 748.914062 1500 C 1163.125 1500 1498.914062 1164.214844 1498.914062 750 C 1498.914062 335.785156 1163.125 0 748.914062 0 Z M 748.914062 0 " clip-rule="nonzero"/></clipPath><clipPath id="b5a3272fd4"><path d="M 0 0 L 1498.914062 0 L 1498.914062 1500 L 0 1500 Z M 0 0 " clip-rule="nonzero"/></clipPath><clipPath id="bc57c14557"><path d="M 748.914062 0 C 334.699219 0 -1.085938 335.785156 -1.085938 750 C -1.085938 1164.214844 334.699219 1500 748.914062 1500 C 1163.125 1500 1498.914062 1164.214844 1498.914062 750 C 1498.914062 335.785156 1163.125 0 748.914062 0 Z M 748.914062 0 " clip-rule="nonzero"/></clipPath><linearGradient x1="0.185507" gradientTransform="matrix(5.859375, 0, 0, 5.859375, -1.086923, -0.00002)" y1="128" x2="255.999995" gradientUnits="userSpaceOnUse" y2="128" id="cf425049a8"><stop stop-opacity="1" stop-color="rgb(80.37262%, 99.978638%, 84.719849%)" offset="0"/><stop stop-opacity="1" stop-color="rgb(80.285645%, 99.871826%, 84.779358%)" offset="0.0078125"/><stop stop-opacity="1" stop-color="rgb(80.111694%, 99.658203%, 84.899902%)" offset="0.015625"/><stop stop-opacity="1" stop-color="rgb(79.936218%, 99.443054%, 85.018921%)" offset="0.0234375"/><stop stop-opacity="1" stop-color="rgb(79.762268%, 99.229431%, 85.137939%)" offset="0.03125"/><stop stop-opacity="1" stop-color="rgb(79.588318%, 99.014282%, 85.256958%)" offset="0.0390625"/><stop stop-opacity="1" stop-color="rgb(79.412842%, 98.800659%, 85.375977%)" offset="0.046875"/><stop stop-opacity="1" stop-color="rgb(79.238892%, 98.58551%, 85.496521%)" offset="0.0546875"/><stop stop-opacity="1" stop-color="rgb(79.063416%, 98.371887%, 85.61554%)" offset="0.0625"/><stop stop-opacity="1" stop-color="rgb(78.889465%, 98.156738%, 85.734558%)" offset="0.0703125"/><stop stop-opacity="1" stop-color="rgb(78.715515%, 97.943115%, 85.853577%)" offset="0.078125"/><stop stop-opacity="1" stop-color="rgb(78.540039%, 97.729492%, 85.974121%)" offset="0.0859375"/><stop stop-opacity="1" stop-color="rgb(78.366089%, 97.514343%, 86.09314%)" offset="0.09375"/><stop stop-opacity="1" stop-color="rgb(78.192139%, 97.30072%, 86.212158%)" offset="0.101562"/><stop stop-opacity="1" stop-color="rgb(78.016663%, 97.085571%, 86.331177%)" offset="0.109375"/><stop stop-opacity="1" stop-color="rgb(77.842712%, 96.871948%, 86.450195%)" offset="0.117188"/><stop stop-opacity="1" stop-color="rgb(77.668762%, 96.656799%, 86.57074%)" offset="0.125"/><stop stop-opacity="1" stop-color="rgb(77.493286%, 96.443176%, 86.689758%)" offset="0.132812"/><stop stop-opacity="1" stop-color="rgb(77.319336%, 96.229553%, 86.808777%)" offset="0.140625"/><stop stop-opacity="1" stop-color="rgb(77.145386%, 96.014404%, 86.927795%)" offset="0.148437"/><stop stop-opacity="1" stop-color="rgb(76.96991%, 95.800781%, 87.04834%)" offset="0.15625"/><stop stop-opacity="1" stop-color="rgb(76.795959%, 95.585632%, 87.167358%)" offset="0.164062"/><stop stop-opacity="1" stop-color="rgb(76.622009%, 95.372009%, 87.286377%)" offset="0.171875"/><stop stop-opacity="1" stop-color="rgb(76.446533%, 95.15686%, 87.405396%)" offset="0.179688"/><stop stop-opacity="1" stop-color="rgb(76.272583%, 94.943237%, 87.52594%)" offset="0.1875"/><stop stop-opacity="1" stop-color="rgb(76.098633%, 94.728088%, 87.644958%)" offset="0.195312"/><stop stop-opacity="1" stop-color="rgb(75.923157%, 94.514465%, 87.763977%)" offset="0.203125"/><stop stop-opacity="1" stop-color="rgb(75.749207%, 94.300842%, 87.882996%)" offset="0.210937"/><stop stop-opacity="1" stop-color="rgb(75.575256%, 94.085693%, 88.002014%)" offset="0.21875"/><stop stop-opacity="1" stop-color="rgb(75.39978%, 93.87207%, 88.122559%)" offset="0.226563"/><stop stop-opacity="1" stop-color="rgb(75.22583%, 93.656921%, 88.241577%)" offset="0.234375"/><stop stop-opacity="1" stop-color="rgb(75.050354%, 93.443298%, 88.360596%)" offset="0.242188"/><stop stop-opacity="1" stop-color="rgb(74.876404%, 93.228149%, 88.479614%)" offset="0.25"/><stop stop-opacity="1" stop-color="rgb(74.702454%, 93.014526%, 88.600159%)" offset="0.257812"/><stop stop-opacity="1" stop-color="rgb(74.526978%, 92.799377%, 88.719177%)" offset="0.265625"/><stop stop-opacity="1" stop-color="rgb(74.353027%, 92.585754%, 88.838196%)" offset="0.273438"/><stop stop-opacity="1" stop-color="rgb(74.179077%, 92.372131%, 88.957214%)" offset="0.28125"/><stop stop-opacity="1" stop-color="rgb(74.003601%, 92.156982%, 89.077759%)" offset="0.289062"/><stop stop-opacity="1" stop-color="rgb(73.829651%, 91.943359%, 89.196777%)" offset="0.296875"/><stop stop-opacity="1" stop-color="rgb(73.655701%, 91.72821%, 89.315796%)" offset="0.304688"/><stop stop-opacity="1" stop-color="rgb(73.480225%, 91.514587%, 89.434814%)" offset="0.3125"/><stop stop-opacity="1" stop-color="rgb(73.306274%, 91.299438%, 89.553833%)" offset="0.320313"/><stop stop-opacity="1" stop-color="rgb(73.132324%, 91.085815%, 89.674377%)" offset="0.328125"/><stop stop-opacity="1" stop-color="rgb(72.956848%, 90.870667%, 89.793396%)" offset="0.335938"/><stop stop-opacity="1" stop-color="rgb(72.782898%, 90.657043%, 89.912415%)" offset="0.34375"/><stop stop-opacity="1" stop-color="rgb(72.608948%, 90.44342%, 90.031433%)" offset="0.351563"/><stop stop-opacity="1" stop-color="rgb(72.433472%, 90.228271%, 90.151978%)" offset="0.359375"/><stop stop-opacity="1" stop-color="rgb(72.259521%, 90.014648%, 90.270996%)" offset="0.367188"/><stop stop-opacity="1" stop-color="rgb(72.085571%, 89.7995%, 90.390015%)" offset="0.375"/><stop stop-opacity="1" stop-color="rgb(71.910095%, 89.585876%, 90.509033%)" offset="0.382813"/><stop stop-opacity="1" stop-color="rgb(71.736145%, 89.370728%, 90.628052%)" offset="0.390625"/><stop stop-opacity="1" stop-color="rgb(71.560669%, 89.157104%, 90.748596%)" offset="0.398438"/><stop stop-opacity="1" stop-color="rgb(71.386719%, 88.941956%, 90.867615%)" offset="0.40625"/><stop stop-opacity="1" stop-color="rgb(71.212769%, 88.728333%, 90.986633%)" offset="0.414062"/><stop stop-opacity="1" stop-color="rgb(71.037292%, 88.514709%, 91.105652%)" offset="0.421875"/><stop stop-opacity="1" stop-color="rgb(70.863342%, 88.299561%, 91.226196%)" offset="0.429688"/><stop stop-opacity="1" stop-color="rgb(70.689392%, 88.085938%, 91.345215%)" offset="0.4375"/><stop stop-opacity="1" stop-color="rgb(70.513916%, 87.870789%, 91.464233%)" offset="0.445313"/><stop stop-opacity="1" stop-color="rgb(70.339966%, 87.657166%, 91.583252%)" offset="0.453125"/><stop stop-opacity="1" stop-color="rgb(70.166016%, 87.442017%, 91.703796%)" offset="0.460938"/><stop stop-opacity="1" stop-color="rgb(69.99054%, 87.228394%, 91.822815%)" offset="0.46875"/><stop stop-opacity="1" stop-color="rgb(69.816589%, 87.013245%, 91.941833%)" offset="0.476563"/><stop stop-opacity="1" stop-color="rgb(69.642639%, 86.799622%, 92.060852%)" offset="0.484375"/><stop stop-opacity="1" stop-color="rgb(69.467163%, 86.585999%, 92.179871%)" offset="0.492188"/><stop stop-opacity="1" stop-color="rgb(69.293213%, 86.37085%, 92.300415%)" offset="0.5"/><stop stop-opacity="1" stop-color="rgb(69.119263%, 86.157227%, 92.419434%)" offset="0.507812"/><stop stop-opacity="1" stop-color="rgb(68.943787%, 85.942078%, 92.538452%)" offset="0.515625"/><stop stop-opacity="1" stop-color="rgb(68.769836%, 85.728455%, 92.657471%)" offset="0.523438"/><stop stop-opacity="1" stop-color="rgb(68.595886%, 85.513306%, 92.778015%)" offset="0.53125"/><stop stop-opacity="1" stop-color="rgb(68.42041%, 85.299683%, 92.897034%)" offset="0.539063"/><stop stop-opacity="1" stop-color="rgb(68.24646%, 85.08606%, 93.016052%)" offset="0.546875"/><stop stop-opacity="1" stop-color="rgb(68.070984%, 84.870911%, 93.135071%)" offset="0.554688"/><stop stop-opacity="1" stop-color="rgb(67.897034%, 84.657288%, 93.254089%)" offset="0.5625"/><stop stop-opacity="1" stop-color="rgb(67.723083%, 84.442139%, 93.374634%)" offset="0.570313"/><stop stop-opacity="1" stop-color="rgb(67.547607%, 84.228516%, 93.493652%)" offset="0.578125"/><stop stop-opacity="1" stop-color="rgb(67.373657%, 84.013367%, 93.612671%)" offset="0.585938"/><stop stop-opacity="1" stop-color="rgb(67.199707%, 83.799744%, 93.731689%)" offset="0.59375"/><stop stop-opacity="1" stop-color="rgb(67.024231%, 83.584595%, 93.852234%)" offset="0.601563"/><stop stop-opacity="1" stop-color="rgb(66.850281%, 83.370972%, 93.971252%)" offset="0.609375"/><stop stop-opacity="1" stop-color="rgb(66.676331%, 83.157349%, 94.090271%)" offset="0.617188"/><stop stop-opacity="1" stop-color="rgb(66.500854%, 82.9422%, 94.20929%)" offset="0.625"/><stop stop-opacity="1" stop-color="rgb(66.326904%, 82.728577%, 94.329834%)" offset="0.632813"/><stop stop-opacity="1" stop-color="rgb(66.152954%, 82.513428%, 94.448853%)" offset="0.640625"/><stop stop-opacity="1" stop-color="rgb(65.977478%, 82.299805%, 94.567871%)" offset="0.648438"/><stop stop-opacity="1" stop-color="rgb(65.803528%, 82.084656%, 94.68689%)" offset="0.65625"/><stop stop-opacity="1" stop-color="rgb(65.629578%, 81.871033%, 94.805908%)" offset="0.664062"/><stop stop-opacity="1" stop-color="rgb(65.454102%, 81.655884%, 94.926453%)" offset="0.671875"/><stop stop-opacity="1" stop-color="rgb(65.280151%, 81.442261%, 95.045471%)" offset="0.679688"/><stop stop-opacity="1" stop-color="rgb(65.106201%, 81.228638%, 95.16449%)" offset="0.6875"/><stop stop-opacity="1" stop-color="rgb(64.930725%, 81.013489%, 95.283508%)" offset="0.695312"/><stop stop-opacity="1" stop-color="rgb(64.756775%, 80.799866%, 95.404053%)" offset="0.703125"/><stop stop-opacity="1" stop-color="rgb(64.582825%, 80.584717%, 95.523071%)" offset="0.710938"/><stop stop-opacity="1" stop-color="rgb(64.407349%, 80.371094%, 95.64209%)" offset="0.71875"/><stop stop-opacity="1" stop-color="rgb(64.233398%, 80.155945%, 95.761108%)" offset="0.726562"/><stop stop-opacity="1" stop-color="rgb(64.057922%, 79.942322%, 95.881653%)" offset="0.734375"/><stop stop-opacity="1" stop-color="rgb(63.883972%, 79.727173%, 96.000671%)" offset="0.742188"/><stop stop-opacity="1" stop-color="rgb(63.710022%, 79.51355%, 96.11969%)" offset="0.75"/><stop stop-opacity="1" stop-color="rgb(63.534546%, 79.299927%, 96.238708%)" offset="0.757812"/><stop stop-opacity="1" stop-color="rgb(63.360596%, 79.084778%, 96.357727%)" offset="0.765625"/><stop stop-opacity="1" stop-color="rgb(63.186646%, 78.871155%, 96.478271%)" offset="0.773438"/><stop stop-opacity="1" stop-color="rgb(63.011169%, 78.656006%, 96.59729%)" offset="0.78125"/><stop stop-opacity="1" stop-color="rgb(62.837219%, 78.442383%, 96.716309%)" offset="0.789062"/><stop stop-opacity="1" stop-color="rgb(62.663269%, 78.227234%, 96.835327%)" offset="0.796875"/><stop stop-opacity="1" stop-color="rgb(62.487793%, 78.013611%, 96.955872%)" offset="0.804687"/><stop stop-opacity="1" stop-color="rgb(62.313843%, 77.798462%, 97.07489%)" offset="0.8125"/><stop stop-opacity="1" stop-color="rgb(62.139893%, 77.584839%, 97.193909%)" offset="0.820312"/><stop stop-opacity="1" stop-color="rgb(61.964417%, 77.371216%, 97.312927%)" offset="0.828125"/><stop stop-opacity="1" stop-color="rgb(61.790466%, 77.156067%, 97.431946%)" offset="0.835937"/><stop stop-opacity="1" stop-color="rgb(61.616516%, 76.942444%, 97.55249%)" offset="0.84375"/><stop stop-opacity="1" stop-color="rgb(61.44104%, 76.727295%, 97.671509%)" offset="0.851562"/><stop stop-opacity="1" stop-color="rgb(61.26709%, 76.513672%, 97.790527%)" offset="0.859375"/><stop stop-opacity="1" stop-color="rgb(61.09314%, 76.298523%, 97.909546%)" offset="0.867188"/><stop stop-opacity="1" stop-color="rgb(60.917664%, 76.0849%, 98.03009%)" offset="0.875"/><stop stop-opacity="1" stop-color="rgb(60.743713%, 75.871277%, 98.149109%)" offset="0.882812"/><stop stop-opacity="1" stop-color="rgb(60.568237%, 75.656128%, 98.268127%)" offset="0.890625"/><stop stop-opacity="1" stop-color="rgb(60.394287%, 75.442505%, 98.387146%)" offset="0.898438"/><stop stop-opacity="1" stop-color="rgb(60.220337%, 75.227356%, 98.50769%)" offset="0.90625"/><stop stop-opacity="1" stop-color="rgb(60.044861%, 75.013733%, 98.626709%)" offset="0.914063"/><stop stop-opacity="1" stop-color="rgb(59.870911%, 74.798584%, 98.745728%)" offset="0.921875"/><stop stop-opacity="1" stop-color="rgb(59.69696%, 74.584961%, 98.864746%)" offset="0.929688"/><stop stop-opacity="1" stop-color="rgb(59.521484%, 74.369812%, 98.983765%)" offset="0.9375"/><stop stop-opacity="1" stop-color="rgb(59.347534%, 74.156189%, 99.104309%)" offset="0.945312"/><stop stop-opacity="1" stop-color="rgb(59.173584%, 73.942566%, 99.223328%)" offset="0.953125"/><stop stop-opacity="1" stop-color="rgb(58.998108%, 73.727417%, 99.342346%)" offset="0.960938"/><stop stop-opacity="1" stop-color="rgb(58.824158%, 73.513794%, 99.461365%)" offset="0.96875"/><stop stop-opacity="1" stop-color="rgb(58.650208%, 73.298645%, 99.581909%)" offset="0.976562"/><stop stop-opacity="1" stop-color="rgb(58.474731%, 73.085022%, 99.700928%)" offset="0.984375"/><stop stop-opacity="1" stop-color="rgb(58.300781%, 72.869873%, 99.819946%)" offset="0.992188"/><stop stop-opacity="1" stop-color="rgb(58.126831%, 72.65625%, 99.938965%)" offset="1"/></linearGradient><clipPath id="9c81faae3b"><rect x="0" width="1499" y="0" height="1500"/></clipPath><clipPath id="856525b55d"><rect x="0" width="677" y="0" height="556"/></clipPath><clipPath id="68ec34c9a2"><rect x="0" width="536" y="0" height="124"/></clipPath></defs><rect x="-150" width="1800" fill="#ffffff" y="-149.999993" height="1799.99992" fill-opacity="1"/><rect x="-150" width="1800" fill="#ffffff" y="-149.999993" height="1799.99992" fill-opacity="1"/><g clip-path="url(#ef7d0fec05)"><g clip-path="url(#2ae5dcb150)"><g transform="matrix(1, 0, 0, 1, 0, 0.000000000000112861)"><g clip-path="url(#9c81faae3b)"><g clip-path="url(#b5a3272fd4)"><g clip-path="url(#bc57c14557)"><path fill="url(#cf425049a8)" d="M 0 0 L 0 1500 L 1498.914062 1500 L 1498.914062 0 Z M 0 0 " fill-rule="nonzero"/></g></g></g></g></g></g><g transform="matrix(1, 0, 0, 1, 411, 333)"><g clip-path="url(#856525b55d)"><g fill="#000000" fill-opacity="1"><g transform="translate(0.924732, 438.924939)"><g><path d="M 292.4375 -97.171875 L 337.78125 -336.859375 L 406.96875 -336.859375 L 332.234375 0 L 262.359375 0 L 207.53125 -225.34375 L 152.703125 0 L 82.828125 0 L 8.09375 -336.859375 L 77.28125 -336.859375 L 122.859375 -97.640625 L 178.375 -336.859375 L 237.140625 -336.859375 Z M 292.4375 -97.171875 "/></g></g><g transform="translate(415.286641, 438.924939)"><g><path d="M 232.75 -137.65625 L 99.484375 -137.65625 L 99.484375 0 L 30.078125 0 L 30.078125 -336.859375 L 249.40625 -336.859375 L 249.40625 -280.640625 L 99.484375 -280.640625 L 99.484375 -193.65625 L 232.75 -193.65625 Z M 232.75 -137.65625 "/></g></g></g></g></g><g transform="matrix(1, 0, 0, 1, 481, 912)"><g clip-path="url(#68ec34c9a2)"><g fill="#000000" fill-opacity="1"><g transform="translate(0.362621, 96.954718)"><g><path d="M 24.65625 -23.4375 L 26.09375 -13.640625 L 28.1875 -22.46875 L 42.890625 -74.34375 L 51.171875 -74.34375 L 65.515625 -22.46875 L 67.5625 -13.484375 L 69.140625 -23.484375 L 80.6875 -74.34375 L 90.53125 -74.34375 L 72.515625 0 L 63.578125 0 L 48.25 -54.171875 L 47.078125 -59.84375 L 45.90625 -54.171875 L 30.03125 0 L 21.09375 0 L 3.109375 -74.34375 L 12.921875 -74.34375 Z M 24.65625 -23.4375 "/></g></g></g><g fill="#000000" fill-opacity="1"><g transform="translate(91.565099, 96.954718)"><g><path d="M 30.078125 1.015625 C 22.585938 1.015625 16.492188 -1.441406 11.796875 -6.359375 C 7.097656 -11.273438 4.75 -17.851562 4.75 -26.09375 L 4.75 -27.828125 C 4.75 -33.304688 5.796875 -38.195312 7.890625 -42.5 C 9.984375 -46.8125 12.910156 -50.179688 16.671875 -52.609375 C 20.429688 -55.046875 24.507812 -56.265625 28.90625 -56.265625 C 36.082031 -56.265625 41.660156 -53.898438 45.640625 -49.171875 C 49.628906 -44.441406 51.625 -37.664062 51.625 -28.84375 L 51.625 -24.921875 L 14.203125 -24.921875 C 14.335938 -19.472656 15.925781 -15.070312 18.96875 -11.71875 C 22.019531 -8.363281 25.894531 -6.6875 30.59375 -6.6875 C 33.925781 -6.6875 36.75 -7.367188 39.0625 -8.734375 C 41.375 -10.097656 43.398438 -11.898438 45.140625 -14.140625 L 50.90625 -9.65625 C 46.28125 -2.539062 39.335938 1.015625 30.078125 1.015625 Z M 28.90625 -48.515625 C 25.09375 -48.515625 21.890625 -47.125 19.296875 -44.34375 C 16.710938 -41.570312 15.113281 -37.6875 14.5 -32.6875 L 42.171875 -32.6875 L 42.171875 -33.390625 C 41.898438 -38.191406 40.609375 -41.910156 38.296875 -44.546875 C 35.984375 -47.191406 32.851562 -48.515625 28.90625 -48.515625 Z M 28.90625 -48.515625 "/></g></g></g><g fill="#000000" fill-opacity="1"><g transform="translate(146.970896, 96.954718)"><g><path d="M 53.921875 -27.015625 C 53.921875 -18.566406 51.976562 -11.78125 48.09375 -6.65625 C 44.21875 -1.539062 39.007812 1.015625 32.46875 1.015625 C 25.5 1.015625 20.109375 -1.453125 16.296875 -6.390625 L 15.828125 0 L 7.15625 0 L 7.15625 -78.4375 L 16.59375 -78.4375 L 16.59375 -49.171875 C 20.40625 -53.898438 25.664062 -56.265625 32.375 -56.265625 C 39.082031 -56.265625 44.347656 -53.726562 48.171875 -48.65625 C 52.003906 -43.59375 53.921875 -36.648438 53.921875 -27.828125 Z M 44.46875 -28.078125 C 44.46875 -34.515625 43.222656 -39.484375 40.734375 -42.984375 C 38.253906 -46.492188 34.6875 -48.25 30.03125 -48.25 C 23.800781 -48.25 19.320312 -45.359375 16.59375 -39.578125 L 16.59375 -15.671875 C 19.488281 -9.890625 24 -7 30.125 -7 C 34.65625 -7 38.175781 -8.75 40.6875 -12.25 C 43.207031 -15.757812 44.46875 -21.035156 44.46875 -28.078125 Z M 44.46875 -28.078125 "/></g></g></g><g fill="#000000" fill-opacity="1"><g transform="translate(205.644869, 96.954718)"><g><path d="M 39.3125 -14.65625 C 39.3125 -17.207031 38.347656 -19.1875 36.421875 -20.59375 C 34.503906 -22.007812 31.15625 -23.226562 26.375 -24.25 C 21.59375 -25.269531 17.796875 -26.492188 14.984375 -27.921875 C 12.179688 -29.359375 10.101562 -31.0625 8.75 -33.03125 C 7.40625 -35.007812 6.734375 -37.359375 6.734375 -40.078125 C 6.734375 -44.609375 8.648438 -48.4375 12.484375 -51.5625 C 16.316406 -54.695312 21.210938 -56.265625 27.171875 -56.265625 C 33.429688 -56.265625 38.507812 -54.644531 42.40625 -51.40625 C 46.300781 -48.175781 48.25 -44.046875 48.25 -39.015625 L 38.75 -39.015625 C 38.75 -41.597656 37.648438 -43.828125 35.453125 -45.703125 C 33.265625 -47.578125 30.503906 -48.515625 27.171875 -48.515625 C 23.734375 -48.515625 21.039062 -47.765625 19.09375 -46.265625 C 17.15625 -44.765625 16.1875 -42.804688 16.1875 -40.390625 C 16.1875 -38.109375 17.085938 -36.390625 18.890625 -35.234375 C 20.691406 -34.078125 23.953125 -32.96875 28.671875 -31.90625 C 33.390625 -30.851562 37.210938 -29.59375 40.140625 -28.125 C 43.066406 -26.664062 45.234375 -24.90625 46.640625 -22.84375 C 48.054688 -20.789062 48.765625 -18.28125 48.765625 -15.3125 C 48.765625 -10.382812 46.789062 -6.429688 42.84375 -3.453125 C 38.894531 -0.472656 33.769531 1.015625 27.46875 1.015625 C 23.039062 1.015625 19.125 0.234375 15.71875 -1.328125 C 12.320312 -2.890625 9.660156 -5.078125 7.734375 -7.890625 C 5.804688 -10.703125 4.84375 -13.738281 4.84375 -17 L 14.296875 -17 C 14.460938 -13.832031 15.726562 -11.320312 18.09375 -9.46875 C 20.46875 -7.613281 23.59375 -6.6875 27.46875 -6.6875 C 31.039062 -6.6875 33.90625 -7.410156 36.0625 -8.859375 C 38.226562 -10.304688 39.3125 -12.238281 39.3125 -14.65625 Z M 39.3125 -14.65625 "/></g></g></g><g fill="#000000" fill-opacity="1"><g transform="translate(259.569774, 96.954718)"><g><path d="M 17.40625 0 L 7.96875 0 L 7.96875 -55.25 L 17.40625 -55.25 Z M 7.203125 -69.90625 C 7.203125 -71.4375 7.671875 -72.726562 8.609375 -73.78125 C 9.546875 -74.84375 10.929688 -75.375 12.765625 -75.375 C 14.597656 -75.375 15.992188 -74.84375 16.953125 -73.78125 C 17.910156 -72.726562 18.390625 -71.4375 18.390625 -69.90625 C 18.390625 -68.375 17.910156 -67.097656 16.953125 -66.078125 C 15.992188 -65.054688 14.597656 -64.546875 12.765625 -64.546875 C 10.929688 -64.546875 9.546875 -65.054688 8.609375 -66.078125 C 7.671875 -67.097656 7.203125 -68.375 7.203125 -69.90625 Z M 7.203125 -69.90625 "/></g></g></g><g fill="#000000" fill-opacity="1"><g transform="translate(284.94919, 96.954718)"><g><path d="M 19.96875 -68.625 L 19.96875 -55.25 L 30.28125 -55.25 L 30.28125 -47.953125 L 19.96875 -47.953125 L 19.96875 -13.6875 C 19.96875 -11.46875 20.425781 -9.804688 21.34375 -8.703125 C 22.257812 -7.597656 23.828125 -7.046875 26.046875 -7.046875 C 27.128906 -7.046875 28.625 -7.25 30.53125 -7.65625 L 30.53125 0 C 28.050781 0.675781 25.632812 1.015625 23.28125 1.015625 C 19.0625 1.015625 15.878906 -0.257812 13.734375 -2.8125 C 11.585938 -5.363281 10.515625 -8.988281 10.515625 -13.6875 L 10.515625 -47.953125 L 0.453125 -47.953125 L 0.453125 -55.25 L 10.515625 -55.25 L 10.515625 -68.625 Z M 19.96875 -68.625 "/></g></g></g><g fill="#000000" fill-opacity="1"><g transform="translate(319.111858, 96.954718)"><g><path d="M 30.078125 1.015625 C 22.585938 1.015625 16.492188 -1.441406 11.796875 -6.359375 C 7.097656 -11.273438 4.75 -17.851562 4.75 -26.09375 L 4.75 -27.828125 C 4.75 -33.304688 5.796875 -38.195312 7.890625 -42.5 C 9.984375 -46.8125 12.910156 -50.179688 16.671875 -52.609375 C 20.429688 -55.046875 24.507812 -56.265625 28.90625 -56.265625 C 36.082031 -56.265625 41.660156 -53.898438 45.640625 -49.171875 C 49.628906 -44.441406 51.625 -37.664062 51.625 -28.84375 L 51.625 -24.921875 L 14.203125 -24.921875 C 14.335938 -19.472656 15.925781 -15.070312 18.96875 -11.71875 C 22.019531 -8.363281 25.894531 -6.6875 30.59375 -6.6875 C 33.925781 -6.6875 36.75 -7.367188 39.0625 -8.734375 C 41.375 -10.097656 43.398438 -11.898438 45.140625 -14.140625 L 50.90625 -9.65625 C 46.28125 -2.539062 39.335938 1.015625 30.078125 1.015625 Z M 28.90625 -48.515625 C 25.09375 -48.515625 21.890625 -47.125 19.296875 -44.34375 C 16.710938 -41.570312 15.113281 -37.6875 14.5 -32.6875 L 42.171875 -32.6875 L 42.171875 -33.390625 C 41.898438 -38.191406 40.609375 -41.910156 38.296875 -44.546875 C 35.984375 -47.191406 32.851562 -48.515625 28.90625 -48.515625 Z M 28.90625 -48.515625 "/></g></g></g><g fill="#000000" fill-opacity="1"><g transform="translate(374.517669, 96.954718)"><g/></g></g><g fill="#000000" fill-opacity="1"><g transform="translate(400.407737, 96.954718)"><g><path d="M 49.640625 -32.828125 L 18.4375 -32.828125 L 18.4375 0 L 8.625 0 L 8.625 -74.34375 L 54.6875 -74.34375 L 54.6875 -66.28125 L 18.4375 -66.28125 L 18.4375 -40.84375 L 49.640625 -40.84375 Z M 49.640625 -32.828125 "/></g></g></g><g fill="#000000" fill-opacity="1"><g transform="translate(458.213601, 96.954718)"><g><path d="M 17.40625 0 L 7.96875 0 L 7.96875 -55.25 L 17.40625 -55.25 Z M 7.203125 -69.90625 C 7.203125 -71.4375 7.671875 -72.726562 8.609375 -73.78125 C 9.546875 -74.84375 10.929688 -75.375 12.765625 -75.375 C 14.597656 -75.375 15.992188 -74.84375 16.953125 -73.78125 C 17.910156 -72.726562 18.390625 -71.4375 18.390625 -69.90625 C 18.390625 -68.375 17.910156 -67.097656 16.953125 -66.078125 C 15.992188 -65.054688 14.597656 -64.546875 12.765625 -64.546875 C 10.929688 -64.546875 9.546875 -65.054688 8.609375 -66.078125 C 7.671875 -67.097656 7.203125 -68.375 7.203125 -69.90625 Z M 7.203125 -69.90625 "/></g></g></g><g fill="#000000" fill-opacity="1"><g transform="translate(483.593045, 96.954718)"><g><path d="M 25.6875 -35.078125 L 37.9375 -55.25 L 48.96875 -55.25 L 30.890625 -27.9375 L 49.53125 0 L 38.609375 0 L 25.84375 -20.6875 L 13.078125 0 L 2.09375 0 L 20.734375 -27.9375 L 2.65625 -55.25 L 13.578125 -55.25 Z M 25.6875 -35.078125 "/></g></g></g></g></g></svg>